<svg width="36" height="36" viewBox="0 0 36 36" fill="none" xmlns="http://www.w3.org/2000/svg">
<rect width="36" height="36" rx="18" fill="#F15929"/>
<path fill-rule="evenodd" clip-rule="evenodd" d="M15.5361 9.78613H12.2504V13.0718V16.3575H9.78613L10.6076 19.6431H12.2504V22.9288V26.2145H15.5361H18.411C22.7207 26.2145 26.2145 22.7207 26.2145 18.411V17.5896C26.2145 13.2799 22.7207 9.78613 18.411 9.78613H15.5361ZM15.5361 19.6431V22.9288H18.411C18.5495 22.9288 18.6865 22.9226 18.8217 22.9104C21.1244 22.7029 22.9288 20.7677 22.9288 18.411V17.5896C22.9288 15.2329 21.1244 13.2977 18.8217 13.0902C18.6865 13.078 18.5495 13.0718 18.411 13.0718H15.5361V16.3575H17.1789L18.0003 19.6431H15.5361Z" fill="white"/>
</svg>
