<svg width="24" height="25" viewBox="0 0 24 25" fill="none" xmlns="http://www.w3.org/2000/svg">
<path d="M12.8323 9.81491L23.1556 4.87743C23.6022 4.73613 23.9062 4.31701 23.9062 3.84285C23.9062 3.26571 23.46 2.7898 22.8914 2.76042L18.2231 0.145835C18.0246 0.1356 17.8259 0.159864 17.6355 0.217591L12.0912 3.94154C11.7226 4.05329 11.4702 4.39696 11.4702 4.78687L11.4702 5.98056C11.4702 6.3646 11.7152 6.70454 12.0762 6.82121L11.2607 9.8101C11.7716 9.97521 12.3203 9.97689 12.8323 9.81491Z" fill="url(#paint0_linear_4352_30471)"/>
<path d="M12.8323 19.9477L23.1556 15.0102C23.6022 14.8689 23.9062 14.4498 23.9062 13.9757C23.9062 13.3985 23.46 12.9226 22.8914 12.8932L18.2231 10.2786C18.0246 10.2684 17.8259 10.2927 17.6355 10.3504L12.0912 14.0744C11.7226 14.1861 11.4702 14.5298 11.4702 14.9197L11.4702 16.1134C11.4702 16.4974 11.7152 16.8374 12.0762 16.954L11.2607 19.9429C11.7716 20.108 12.3203 20.1097 12.8323 19.9477Z" fill="url(#paint1_linear_4352_30471)"/>
<path d="M11.8304 24L22.8949 23.7339C23.3414 23.5926 23.6455 23.1735 23.6455 22.6993C23.6455 22.1222 23.1993 21.6462 22.6306 21.6169L17.9623 19.0023C17.7639 18.992 17.5651 19.0163 17.3747 19.074L11.8304 22.798C11.4619 22.9097 11.2094 23.2534 11.2094 23.6433L10.4683 20.1656C10.4683 20.5497 10.7134 20.8896 11.0744 21.0063L10.2588 23.9952C10.7698 24.1603 11.3185 24.162 11.8304 24Z" fill="url(#paint2_linear_4352_30471)"/>
<path fill-rule="evenodd" clip-rule="evenodd" d="M0.00254258 0.926399C0.00254258 0.415199 0.442747 0 0.984731 0H14.0153C14.5572 0 15 0.415199 15 0.926399V23.0736C15 23.1955 14.9745 23.3161 14.925 23.4287C14.8755 23.5412 14.8029 23.6435 14.7114 23.7295C14.62 23.8156 14.5114 23.8838 14.3919 23.9302C14.2725 23.9766 14.1445 24.0003 14.0153 24H10.3257C10.0652 24 9.81538 23.9024 9.63119 23.7287C9.44699 23.5549 9.34351 23.3193 9.34351 23.0736V5.544C9.34385 5.42214 9.31868 5.30142 9.26947 5.18874C9.22026 5.07607 9.14797 4.97366 9.05673 4.88738C8.9655 4.80111 8.85711 4.73265 8.73778 4.68595C8.61845 4.63924 8.49052 4.6152 8.36132 4.6152H0.982187C0.721694 4.6152 0.471871 4.5176 0.287675 4.34386C0.103479 4.17013 0 3.9345 0 3.6888L0.00254258 0.926399Z" fill="#F15929"/>
<path d="M23.0011 10H17.9989C17.4477 10 17 10.4498 17 11.0062V13.9964C17 14.2625 17.1052 14.5178 17.2926 14.706C17.4799 14.8943 17.734 15 17.9989 15H23.0011C23.1325 15 23.2626 14.974 23.384 14.9234C23.5053 14.8728 23.6156 14.7986 23.7083 14.7051C23.8011 14.6117 23.8747 14.5007 23.9247 14.3786C23.9748 14.2566 24.0003 14.1258 24 13.9938V11.0036C24 10.4498 23.5523 10 23.0011 10Z" fill="#F15929"/>
<path d="M23.0011 19H17.9989C17.4477 19 17 19.4498 17 20.0062V22.9964C17 23.2625 17.1052 23.5178 17.2926 23.706C17.4799 23.8943 17.734 24 17.9989 24H23.0011C23.1325 24 23.2626 23.974 23.384 23.9234C23.5053 23.8728 23.6156 23.7986 23.7083 23.7051C23.8011 23.6116 23.8747 23.5007 23.9247 23.3786C23.9748 23.2566 24.0003 23.1258 24 22.9938V20.0036C24 19.4498 23.5523 19 23.0011 19Z" fill="#F15929"/>
<path d="M23.0011 0H17.9989C17.4477 0 17 0.449817 17 1.00624V3.99636C17 4.26254 17.1052 4.51782 17.2926 4.70604C17.4799 4.89426 17.734 5 17.9989 5H23.0011C23.1325 5 23.2626 4.97395 23.384 4.92335C23.5053 4.87275 23.6156 4.79859 23.7083 4.70512C23.8011 4.61165 23.8747 4.5007 23.9247 4.37863C23.9748 4.25657 24.0003 4.12578 24 3.99376V1.00364C24 0.449817 23.5523 0 23.0011 0Z" fill="#F15929"/>
<defs>
<linearGradient id="paint0_linear_4352_30471" x1="18.1848" y1="3.48591" x2="17.5152" y2="6.01822" gradientUnits="userSpaceOnUse">
<stop stop-color="#FFF0D9"/>
<stop offset="0.911458" stop-color="#FFF0D9"/>
</linearGradient>
<linearGradient id="paint1_linear_4352_30471" x1="18.1848" y1="13.6187" x2="17.5152" y2="16.151" gradientUnits="userSpaceOnUse">
<stop stop-color="#FFF0D9"/>
<stop offset="0.911458" stop-color="#FFF0D9"/>
</linearGradient>
<linearGradient id="paint2_linear_4352_30471" x1="17.9241" y1="22.3424" x2="17.2545" y2="24.8747" gradientUnits="userSpaceOnUse">
<stop stop-color="#FFF0D9"/>
<stop offset="0.911458" stop-color="#FFF0D9"/>
</linearGradient>
</defs>
</svg>
